<svg width="19" height="19" viewBox="0 0 19 19" fill="none" xmlns="http://www.w3.org/2000/svg">
<path fill-rule="evenodd" clip-rule="evenodd" d="M0 9.5C0 4.25329 4.25329 0 9.5 0C12.1209 0 14.494 1.06136 16.2127 2.77772L18.1718 0.815278C18.4772 0.509351 19 0.725644 19 1.15792V7.84442C19 7.95378 18.9638 8.05467 18.9028 8.13579C18.9121 8.20045 18.9207 8.26532 18.9287 8.33039H16.5367L16.536 8.32601L11.8506 8.31797C11.4191 8.31723 11.2033 7.79571 11.5082 7.49035L14.5398 4.45349C13.2494 3.16482 11.4678 2.36793 9.50006 2.36793C5.5611 2.36793 2.36793 5.5611 2.36793 9.50006C2.36793 13.439 5.5611 16.6322 9.50006 16.6322C12.6021 16.6322 15.2415 14.6518 16.2232 11.8865L16.22 11.8853L16.2338 11.8475C16.4579 11.2318 17.1388 10.9143 17.7546 11.1384C18.3704 11.3625 18.6879 12.0434 18.4637 12.6592L18.45 12.697L18.4488 12.6965C17.1363 16.3707 13.6252 19 9.5 19C4.25329 19 0 14.7467 0 9.5Z" fill="black"/>
</svg>
