<svg width="21" height="20" viewBox="0 0 21 20" fill="none" xmlns="http://www.w3.org/2000/svg">
<path d="M6.48001 1.99996L3.65927 1.97937C2.19375 1.96867 1 3.15374 1 4.6193V16.2C1 17.7464 2.2536 19 3.8 19H15.12C16.6664 19 17.92 17.7464 17.92 16.2V12.88" stroke="black" stroke-width="2"/>
<rect x="5.47998" y="1" width="2" height="2" rx="1" fill="black"/>
<rect x="16.9202" y="11.9601" width="2" height="2" rx="1" fill="black"/>
<path d="M15.0503 1.82832C14.9983 1.7851 14.9195 1.8218 14.9191 1.8894L14.9121 3.19997L14.8809 9.0303C14.8806 9.09793 14.9591 9.13547 15.0115 9.09271L19.3648 5.54136C19.4038 5.50954 19.404 5.45005 19.3653 5.41787L15.0503 1.82832Z" fill="black" stroke="black" stroke-width="2"/>
<path d="M13.9601 3C8.65252 3.54638 4.7201 8.92002 4.6001 14.44H5.4801C5.4801 14.44 7.7601 7.52002 13.9601 8V3Z" fill="black" stroke="black" stroke-width="0.08"/>
</svg>
